<?xml version="1.0" encoding="utf-8"?>
<!-- Generator: Adobe Illustrator 16.0.0, SVG Export Plug-In . SVG Version: 6.00 Build 0)  -->
<!DOCTYPE svg PUBLIC "-//W3C//DTD SVG 1.1//EN" "http://www.w3.org/Graphics/SVG/1.1/DTD/svg11.dtd" [
	<!ENTITY ns_flows "http://ns.adobe.com/Flows/1.0/">
	<!ENTITY ns_extend "http://ns.adobe.com/Extensibility/1.0/">
	<!ENTITY ns_ai "http://ns.adobe.com/AdobeIllustrator/10.0/">
	<!ENTITY ns_graphs "http://ns.adobe.com/Graphs/1.0/">
]>
<svg version="1.1" id="Layer_1" xmlns:x="&ns_extend;" xmlns:i="&ns_ai;" xmlns:graph="&ns_graphs;"
	 xmlns="http://www.w3.org/2000/svg" xmlns:xlink="http://www.w3.org/1999/xlink" xmlns:a="http://ns.adobe.com/AdobeSVGViewerExtensions/3.0/"
	 x="0px" y="0px" width="864px" height="864px" viewBox="0 0 864 864" enable-background="new 0 0 864 864" xml:space="preserve">
<path fill-rule="evenodd" clip-rule="evenodd" d="M234.701,193.73c-3.706-5.551-6.345-9.507-10.591-15.868
	c46.305,5.613,90.17,10.93,133.979,16.239c-2.287-2.497-5.199-5.676-8.872-9.687c2.66,0.188,4.736-0.073,6.529,0.521
	c30.728,10.193,62.167,18.738,91.859,31.383c19.813,8.439,37.012,22.942,55.663,34.264c3.457,2.099,8.267,1.969,12.451,2.867
	c0.29-0.887,0.581-1.774,0.872-2.661c0.502,0.561,1.448,1.125,1.444,1.683c-0.114,15.739-0.156,15.68,14.85,9.112
	c3.949-1.728,8.114-2.965,13.448-4.885c-6.806,7.401-12.685,13.794-18.869,20.519c5.041,2.404,10.846,5.17,18.561,8.849
	c-13.688,5.515-10.511,16.275-10.836,25.91c-0.762,22.49-1.305,44.992-2.581,67.453c-0.252,4.434-2.379,9.645-5.384,12.879
	c-11.103,11.95-14.273,26.327-14.596,41.816c-0.172,8.29,0.434,16.628-0.291,24.858c-0.278,3.165-3.276,6.09-5.035,9.125
	c-0.82-0.527-1.641-1.053-2.461-1.58c-1.72-15.865-0.665-32.697-5.776-47.382c-8.836-25.388-6.681-54.833-27.693-76.119
	c-12.808,11.751-25.999,23.855-40.277,36.957c-8.668-8.442-18.137-15.98-25.425-25.235c-7.215-9.163-14.174-8.674-22.177-2.967
	c-19.181,13.672-38.135,27.662-58.736,42.656c-8.571-16.007-16.884-31.531-25.199-47.057c-0.708,0.211-1.415,0.423-2.123,0.634
	c0.875,5.197,1.75,10.393,2.958,17.565c-12.951-8.205-24.627-15.603-36.774-23.298c-25.998,17.573-51.97,35.127-78.453,53.029
	c-8.961-17.345-17.496-33.862-26.679-51.635c-13.386,10.65-26.136,20.793-39.958,31.789c-6.416-7.67-12.529-14.981-19.435-23.239
	c-1.031,13.655-1.668,26.521-3.096,39.3c-0.813,7.276-3.352,14.35-4.347,21.619c-1.801,13.151-3.15,26.369-4.426,39.584
	c-0.431,4.457-0.068,8.992-2.202,15.115c-2.239-2.547-5.663-4.77-6.465-7.708c-1.553-5.687-2.478-11.822-2.162-17.69
	c0.964-17.87-1.768-33.959-15.188-47.499c-3.636-3.669-4.461-10.936-5.022-16.704c-2.724-28-4.596-56.088-7.638-84.051
	c-0.482-4.423-5.401-8.362-9.64-14.516c13.057-8.153,28.799-17.985,44.155-27.575c-8.845-0.705-18.715-1.492-29.822-2.376
	c24.765-14.246,49.749-22.485,77.723-19.48c0.05-1.238,0.098-2.477,0.148-3.715c-14.811-2.376-29.621-4.753-47.792-7.669
	c27.011-6.269,50.32-14.911,75.705-16.571C183.963,200.659,208.752,196.76,234.701,193.73z"/>
<path fill-rule="evenodd" clip-rule="evenodd" d="M183.185,782.323c4.418-5.269,8.836-10.537,13.49-16.089
	c0.949,5.146,1.405,10.528,3.015,15.539c1.647,5.126,4.426,9.888,7.531,16.58c-29.055-10.945-50.52-27.809-62.041-55.393
	c-2.169-5.192-1.81-11.895-1.149-17.733c2.621-23.127,3.74-45.886-1.208-69.146c-2.82-13.256,7.584-23.779,17.141-31.919
	c11.458-9.761,24.014-15.034,40.196-7.745c21.996,9.907,45.643,11.396,69.908,12.202c31.485,1.046,62.395-1.405,93.409-5.228
	c5.878-0.725,12.634-0.026,17.421-2.74c10.322-5.854,17.737-1.031,25.724,4.093c15.361,9.855,32.574,19.601,34.939,39.176
	c2.466,20.395,0.768,41.344,0.185,62.03c-0.228,8.055-3.232,16.025-3.5,24.083c-0.857,25.922-18.168,37.142-39.275,44.948
	c-4.767,1.764-10.198,2.539-15.301,2.451c-27.77-0.486-55.542-2.212-83.294-1.869c-20.819,0.256-41.6,3.108-62.416,4.553
	c-6.446,0.447-12.951,0.069-18.743,0.069c2.928-3.314,5.692-6.443,8.415-9.527c6.936,10.173,24.753,9.675,34.656-1.219
	c8.077,5.1,26.513,2.913,29.618-1.202c12.997,1.754,24.451,3.3,35.789,4.83c0.86-2.088,1.691-3.128,1.627-4.107
	c-0.5-7.681,0.345-21.359-2.058-21.967c-9.751-2.462-20.517-0.977-30.9-0.66c-0.633,0.02-1.19,2.522-1.296,2.764
	c-20.551-9.747-42.854-1.791-64.3-7.436c-1.086,4.988-1.9,8.729-2.732,12.557c-1.312-5.638-0.865-12.566-4.093-15.663
	c-5.777-5.541-13.768-8.772-23.378-14.48c-0.582-5.765-0.077-16.852-13.469-18.151c-0.331-16.935-8.672-24.023-25.18-21.49
	c-2.398,0.369-5.982,4.258-6.068,6.624c-0.536,14.857-4.16,29.8,8.394,43.1c6.931,7.344,9.569,18.741,14.145,28.312
	C179.983,782.421,181.584,782.372,183.185,782.323z M409.878,740.56c-11.681-0.531-19.008,4.258-19.354,17.367
	c-2.804-3.662-4.909-6.412-7.136-9.32c-3.087,2.38-5.098,4.077-7.251,5.565c-15.737,10.875-15.998,11.589-10.974,30.945
	c0.281,1.083-0.125,2.741,0.507,3.266c2.973,2.466,5.951,6.066,9.373,6.652c14.41,2.468,19.796-7.052,22.052-20.096
	c2.22,1.873,3.274,2.83,4.398,3.699c3.257,2.521,8.563,7.731,9.478,7.053c5.072-3.765,11.738-8.39,12.906-13.791
	c2.581-11.926,3-24.747-10.072-32.53c6.095,4.993,12.191,9.988,17.681,14.485c0-9.373,0-21.354,0-33.366
	c-6.431-0.573-11.129-1.479-15.783-1.287c-6.268,0.259-11.283,2.74-13.118,9.666C400.795,735.622,404.958,738.223,409.878,740.56z
	 M241.829,641.419c-3.049-12.591-13.712-10.347-21.483-13.72c-8.98-3.897-16.398-3.538-22.4,4.938
	c-11.364-18.06-20.776-18.94-35.547-4.268c-1.067,1.06-2.316,2.056-3.026,3.334c-2.132,3.837-4.04,7.799-6.035,11.712
	c5.135,2.344,10.203,4.856,15.435,6.96c2.452,0.985,6.009,0.32,7.716,1.881c9.188,8.402,18.086,8.581,24.913,1.585
	c6.083,3.901,10.641,8.921,15.849,9.724c10.415,1.605,22.254-1.853,31.571,1.765c15.923,6.18,31.003,2.687,46.529,1.643
	c14.262-0.96,28.525-2.149,42.805-2.478c8.457-0.194,16.989,1.893,25.412,1.465c7.912-0.403,15.757-2.721,15.966-12.585
	c6.151,3.777,12.048,7.397,17.651,10.838c6.162-5.061,11.695-9.48,17.086-14.069c5.75-4.894,5.382-12.758-1.229-16.836
	c-6.279-3.874-13.066-6.926-19.68-10.366c-3.847,4.296-7.019,7.839-10.308,11.513c-8.224-13.654-22.51-12.1-40.489,3.799
	c-6.804-12.159-35.207-10.712-48.061,2.449C282.133,627.763,253.37,627.252,241.829,641.419z M332.926,762.094
	c-3.822,24.976-1.429,32.197,9.098,33.113c15.57,1.355,20.662-3.358,19.348-22.424C359.469,745.163,341.155,773.164,332.926,762.094
	z"/>
<path fill-rule="evenodd" clip-rule="evenodd" d="M129.349,383.792c-5.939,11.887-15.854,22.532-8.277,37.137
	c2.139,4.123,6.961,9.515,10.745,9.67c17.331,0.713,30.752,9.399,43.179,19.635c14.759,12.156,28.663,25.372,42.636,38.45
	c11.547,10.81,27.09,14.328,39.134,8.169c12.967-6.631,18.962-19.34,15.773-33.544c-0.627-2.796-1.438-5.552-2.479-9.532
	c10.199,12.25,10.074,34.474-0.852,46.936c-9.534,10.876-23.019,13.162-38.116,10.202c-16.988-3.332-34.5-4.288-51.839-5.453
	c-16.637-1.118-25.434-7.288-27.641-23.696c-2.476-18.404-13.062-30.59-27.323-40.594c-21.012-14.739-22.271-26.175-4.907-45.52
	C122.832,391.812,126.034,387.752,129.349,383.792z M197.712,481.615c-6.017-1.019-13.008-0.294-16.554-3.445
	c-2.548-2.263-0.496-9.704-0.496-15.381c-6.659,1.078-9.801,4.754-10.11,11.934c-0.332,7.663,3.331,12.02,9.953,14.313
	C188.62,491.847,194.032,488.137,197.712,481.615z"/>
<path fill-rule="evenodd" clip-rule="evenodd" d="M469.245,392.942c3.88,5.525,8.812,10.596,11.424,16.665
	c5.833,13.555,2.728,19.24-13.724,31.823c-14.56,11.135-26.386,24.121-29.288,43.47c-1.67,11.138-17.181,22.993-27.918,20.406
	c-17.57-4.232-33.493,1.388-50.189,4.377c-9.363,1.676-20.346,0.262-29.322-3.132c-17.627-6.667-22.736-38.082-9.673-52.488
	c-5.676,23.935-0.344,39.025,17.646,43.899c16.324,4.424,29.448-4.029,41.411-14.59c16.771-14.804,33.496-29.723,51.128-43.451
	c6.042-4.706,14.581-7.513,22.295-8.385c7.513-0.848,15.071-0.821,16.814-9.084c1.523-7.221,0.319-15.057-0.021-22.604
	c-0.089-1.988-1.444-3.917-2.219-5.874C468.153,393.63,468.699,393.286,469.245,392.942z M395.057,481.191
	c4.114,6.026,9.106,10.342,18.011,7.366c7.168-2.395,10.808-7.364,9.455-14.365c-0.79-4.085-4.483-7.609-7.895-13.008
	c-0.776,8.397,0.443,15.657-2.017,17.257C408.408,481.175,401.897,480.358,395.057,481.191z"/>
<path fill-rule="evenodd" clip-rule="evenodd" d="M266.2,538.436c-15.509-9.025-16.15,3.212-19.701,10.475
	c-6.497,13.293,4.31,17.15,13.623,23.001c0.387-2.716,0.681-4.774,1.184-8.31c4.448,2.726,9.949,4.217,12.039,7.734
	c5.925,9.971,14.963,8.212,24.095,9.482c11.848,1.649,20.526-0.726,27.783-10.454c1.542-2.067,6.825-1.345,10.384-1.907
	c0.305,0.901,0.609,1.805,0.914,2.706c4.165-3.089,8.331-6.178,14.337-10.632c-4.68-8.661-9.432-17.455-14.37-26.595
	c-4.649,2.468-7.347,3.899-10.046,5.333c-0.529-0.766-1.059-1.533-1.587-2.299c2.922-2.139,5.844-4.276,10.855-7.942
	c4.229,5.101,8.125,10.153,12.39,14.873c10.862,12.018,11.341,18.736-0.832,28.345c-18.881,14.902-39.048,29.046-64.836,19.118
	c-14.342-5.521-27.645-13.891-40.988-21.708c-2.175-1.275-3.592-6.752-2.817-9.591c2.047-7.498,4.831-14.976,8.552-21.788
	C251.545,530.283,257.696,527.864,266.2,538.436z"/>
<path fill-rule="evenodd" clip-rule="evenodd" d="M150.7,563.813c-11.464-3.839-22.486-8.354-33.926-11.171
	c-17.838-4.391-22.946-18.022-26.569-33.641c19.218,35.577,53.404,31.689,85.878,33.445c-27.862,19.509-54.572,39.82-57.449,77.82
	c-4.379-13.736-1.021-25.529,7.569-36.168C134.112,584.304,142.037,574.521,150.7,563.813z"/>
<path fill-rule="evenodd" clip-rule="evenodd" d="M134.604,694.7c-1.34-18.029-2.744-36.054-3.917-54.094
	c-0.108-1.678,1.079-3.533,1.933-5.166c13.78-26.35,31.746-48.942,57.807-64.256c2.573-1.511,5.195-3.009,7.519-4.858
	c15.086-12.008,30.096-24.111,45.131-36.184c0.876,1.1,1.751,2.197,2.627,3.296c-5.323,4.226-10.557,8.569-15.993,12.644
	c-6.25,4.686-12.921,8.834-18.97,13.755c-8.643,7.03-16.436,15.166-25.394,21.737c-19.946,14.634-36.804,31.824-47.993,54.082
	c-1.432,2.848-2.367,6.337-2.277,9.493c0.465,16.455,1.335,32.901,2.066,49.351C136.297,694.565,135.451,694.633,134.604,694.7z"/>
<path fill-rule="evenodd" clip-rule="evenodd" d="M415.11,551.879c31.336,2.433,71.307-10.602,85.612-27.731
	c-2.127,14.132-8.042,23.538-22.505,26.863c-13.277,3.053-26.205,7.638-38.56,11.329c7.01,9.841,14.694,19.27,20.824,29.619
	c5.916,9.99,11.67,20.592,7.993,34.252C463.419,592.086,445.613,568.09,415.11,551.879z"/>
<path fill-rule="evenodd" clip-rule="evenodd" d="M324.528,520.527c-19.195-9.01-38.3-8.075-57.596-1.393
	C283.877,499.915,303.787,500.171,324.528,520.527z"/>
<path fill-rule="evenodd" clip-rule="evenodd" d="M430.047,597.448c-17.192-12.434-34.386-24.868-51.579-37.302
	c0.798-1.057,1.597-2.111,2.394-3.168c17.018,12.675,34.035,25.351,51.053,38.025C431.292,595.819,430.669,596.635,430.047,597.448z
	"/>
</svg>
